<svg height="32px" version="1.1" viewBox="0 0 32 32" width="32px" xmlns="http://www.w3.org/2000/svg" xmlns:xlink="http://www.w3.org/1999/xlink"><g fill="none" fill-rule="evenodd" id="Page-1" stroke="none" stroke-width="1"><g id="letter-G"><g id="Page-1" transform="translate(3.000000, 2.000000)"><path d="M26.3391,17.0303 L26.3391,22.2203 C26.3391,22.9103 26.2711,23.4613 26.1361,23.8733 C26.0001,24.2853 25.7511,24.6583 25.3881,24.9903 C25.0251,25.3233 24.5601,25.6433 23.9931,25.9513 C22.3561,26.8373 20.7801,27.4843 19.2651,27.8903 C17.7511,28.2963 16.1011,28.5003 14.3151,28.5003 C12.2341,28.5003 10.3381,28.1803 8.6271,27.5393 C6.9151,26.8993 5.4561,25.9693 4.2491,24.7503 C3.0431,23.5313 2.1161,22.0543 1.4701,20.3183 C0.8231,18.5813 0.5001,16.6423 0.5001,14.5003 C0.5001,12.3943 0.8141,10.4673 1.4421,8.7193 C2.0701,6.9703 2.9931,5.4863 4.2121,4.2673 C5.4311,3.0483 6.9151,2.1163 8.6641,1.4693 C10.4121,0.8233 12.3941,0.5003 14.6111,0.5003 C16.4331,0.5003 18.0461,0.7433 19.4501,1.2293 C20.8541,1.7163 21.9921,2.3283 22.8671,3.0673 C23.7411,3.8063 24.4001,4.5883 24.8431,5.4133 C25.2861,6.2383 25.5081,6.9703 25.5081,7.6103 C25.5081,8.3003 25.2521,8.8883 24.7411,9.3743 C24.2301,9.8613 23.6181,10.1043 22.9041,10.1043 C22.5101,10.1043 22.1311,10.0123 21.7681,9.8273 C21.4051,9.6423 21.1001,9.3843 20.8541,9.0513 C20.1761,7.9923 19.6041,7.1923 19.1361,6.6503 C18.6681,6.1083 18.0371,5.6533 17.2431,5.2833 C16.4481,4.9143 15.4361,4.7293 14.2041,4.7293 C12.9361,4.7293 11.8031,4.9483 10.8061,5.3853 C9.8091,5.8223 8.9561,6.4563 8.2481,7.2873 C7.5401,8.1183 6.9981,9.1373 6.6231,10.3443 C6.2471,11.5513 6.0591,12.8873 6.0591,14.3523 C6.0591,17.5293 6.7891,19.9733 8.2481,21.6843 C9.7071,23.3963 11.7421,24.2523 14.3521,24.2523 C15.6201,24.2523 16.8121,24.0853 17.9261,23.7533 C19.0401,23.4203 20.1701,22.9463 21.3151,22.3313 L21.3151,17.9353 L17.0671,17.9353 C16.0451,17.9353 15.2731,17.7813 14.7491,17.4733 C14.2261,17.1653 13.9641,16.6423 13.9641,15.9033 C13.9641,15.3003 14.1831,14.8013 14.6201,14.4073 C15.0571,14.0133 15.6511,13.8163 16.4021,13.8163 L22.6271,13.8163 C23.3901,13.8163 24.0361,13.8843 24.5661,14.0193 C25.0951,14.1553 25.5231,14.4573 25.8501,14.9243 C26.1761,15.3923 26.3391,16.0943 26.3391,17.0303" fill="#3a10e5" id="Fill-1"/><path d="M26.3391,17.0303 L26.3391,22.2203 C26.3391,22.9103 26.2711,23.4613 26.1361,23.8733 C26.0001,24.2853 25.7511,24.6583 25.3881,24.9903 C25.0251,25.3233 24.5601,25.6433 23.9931,25.9513 C22.3561,26.8373 20.7801,27.4843 19.2651,27.8903 C17.7511,28.2963 16.1011,28.5003 14.3151,28.5003 C12.2341,28.5003 10.3381,28.1803 8.6271,27.5393 C6.9151,26.8993 5.4561,25.9693 4.2491,24.7503 C3.0431,23.5313 2.1161,22.0543 1.4701,20.3183 C0.8231,18.5813 0.5001,16.6423 0.5001,14.5003 C0.5001,12.3943 0.8141,10.4673 1.4421,8.7193 C2.0701,6.9703 2.9931,5.4863 4.2121,4.2673 C5.4311,3.0483 6.9151,2.1163 8.6641,1.4693 C10.4121,0.8233 12.3941,0.5003 14.6111,0.5003 C16.4331,0.5003 18.0461,0.7433 19.4501,1.2293 C20.8541,1.7163 21.9921,2.3283 22.8671,3.0673 C23.7411,3.8063 24.4001,4.5883 24.8431,5.4133 C25.2861,6.2383 25.5081,6.9703 25.5081,7.6103 C25.5081,8.3003 25.2521,8.8883 24.7411,9.3743 C24.2301,9.8613 23.6181,10.1043 22.9041,10.1043 C22.5101,10.1043 22.1311,10.0123 21.7681,9.8273 C21.4051,9.6423 21.1001,9.3843 20.8541,9.0513 C20.1761,7.9923 19.6041,7.1923 19.1361,6.6503 C18.6681,6.1083 18.0371,5.6533 17.2431,5.2833 C16.4481,4.9143 15.4361,4.7293 14.2041,4.7293 C12.9361,4.7293 11.8031,4.9483 10.8061,5.3853 C9.8091,5.8223 8.9561,6.4563 8.2481,7.2873 C7.5401,8.1183 6.9981,9.1373 6.6231,10.3443 C6.2471,11.5513 6.0591,12.8873 6.0591,14.3523 C6.0591,17.5293 6.7891,19.9733 8.2481,21.6843 C9.7071,23.3963 11.7421,24.2523 14.3521,24.2523 C15.6201,24.2523 16.8121,24.0853 17.9261,23.7533 C19.0401,23.4203 20.1701,22.9463 21.3151,22.3313 L21.3151,17.9353 L17.0671,17.9353 C16.0451,17.9353 15.2731,17.7813 14.7491,17.4733 C14.2261,17.1653 13.9641,16.6423 13.9641,15.9033 C13.9641,15.3003 14.1831,14.8013 14.6201,14.4073 C15.0571,14.0133 15.6511,13.8163 16.4021,13.8163 L22.6271,13.8163 C23.3901,13.8163 24.0361,13.8843 24.5661,14.0193 C25.0951,14.1553 25.5231,14.4573 25.8501,14.9243 C26.1761,15.3923 26.3391,16.0943 26.3391,17.0303 L26.3391,17.0303 Z" id="Stroke-3" stroke="#092933" stroke-linejoin="round"/><path d="M25.6607,22.7178 C25.5527,23.0498 25.3517,23.3458 25.0507,23.6228 C24.7187,23.9258 24.2827,24.2258 23.7557,24.5118 C22.1597,25.3748 20.6047,26.0138 19.1357,26.4068 C17.6707,26.8008 16.0487,26.9998 14.3147,26.9998 C12.3057,26.9998 10.4497,26.6878 8.8017,26.0718 C7.1657,25.4588 5.7537,24.5598 4.6047,23.3998 C3.4537,22.2368 2.5567,20.8048 1.9377,19.1438 C1.3657,17.6088 1.0657,15.8748 1.0187,13.9978 C1.0147,14.1658 0.9997,14.3288 0.9997,14.4998 C0.9997,16.5728 1.3147,18.4718 1.9377,20.1438 C2.5567,21.8048 3.4537,23.2368 4.6047,24.3998 C5.7537,25.5598 7.1657,26.4588 8.8017,27.0718 C10.4497,27.6878 12.3057,27.9998 14.3147,27.9998 C16.0487,27.9998 17.6707,27.8008 19.1357,27.4068 C20.6047,27.0138 22.1597,26.3748 23.7557,25.5118 C24.2827,25.2258 24.7187,24.9258 25.0507,24.6228 C25.3517,24.3458 25.5527,24.0498 25.6607,23.7178 C25.7797,23.3558 25.8397,22.8528 25.8397,22.2208 L25.8397,21.2208 C25.8397,21.8528 25.7797,22.3558 25.6607,22.7178" fill="#332E09" id="Fill-5" opacity="0.203766325"/><path d="M5.273,5.3281 C6.332,4.2691 7.647,3.4451 9.184,2.8771 C10.756,2.2951 12.583,2.0001 14.611,2.0001" id="Stroke-7" stroke="#FFFFFF" stroke-dasharray="1,2,6,2,3" stroke-linecap="round" stroke-linejoin="round"/></g></g></g></svg>