<svg xmlns="http://www.w3.org/2000/svg" width="809.342" height="614.734" viewBox="0 0 809.342 614.734"><path d="M596.668 422.734a192.184 192.184 0 0 1-105.99 171.7q-2.445 1.23-4.94 2.39a192.755 192.755 0 0 1-137.16 9.59q-6.675-2.04-13.14-4.54a192.057 192.057 0 0 1 39.53-368.86 193.87 193.87 0 0 1 29.7-2.28c106.04 0 192 85.96 192 192Z" fill="#f2f2f2"/><path d="M610.595 450.099c28.623-31.077 43.35-77.604 27.918-116.933a194.659 194.659 0 0 1-101.986 86.372c-16.653 6.053-35.806 11.052-44.852 26.288-5.628 9.48-6.027 21.347-3.477 32.072 2.552 10.727 7.792 20.59 12.98 30.319l.032 2.752c40.535-11.914 80.763-29.794 109.385-60.87Z" fill="#e6e6e6"/><path d="M637.652 333.375a166.38 166.38 0 0 1-44.719 92.084c-5.22 5.374-10.983 10.37-17.645 13.878a41.094 41.094 0 0 1-21.15 4.52c-6.84-.244-13.808-1.286-20.587.137-7.147 1.5-12.801 6.115-16.47 12.339-4.487 7.615-5.972 16.389-7.125 25.02-1.28 9.582-2.458 19.555-7.93 27.803-.664 1 .926 1.97 1.588.972 9.52-14.35 6.312-32.672 12.73-48.143 2.995-7.219 8.184-13.579 15.948-15.765 6.789-1.913 13.975-.845 20.898-.538 7.27.322 14.19-.571 20.845-3.65 6.808-3.148 12.779-7.93 18.114-13.148a161.42 161.42 0 0 0 29.811-40.7 169.331 169.331 0 0 0 17.554-54.771c.166-1.184-1.697-1.214-1.862-.038Z" fill="#fff"/><path d="M601.208 417.793a24.962 24.962 0 0 0 32.234-2.402c.85-.844-.422-2.205-1.273-1.36a23.115 23.115 0 0 1-29.99 2.174c-.964-.71-1.93.882-.971 1.588Zm-43.618 26.644a48.113 48.113 0 0 1 7.257-34.304c.66-1.001-.93-1.972-1.589-.972a50.045 50.045 0 0 0-7.48 35.712c.2 1.184 2.01.742 1.811-.436Zm70.84-73.554a14.13 14.13 0 0 1-8.137-10.657c-.184-1.186-1.994-.742-1.81.436a15.834 15.834 0 0 0 8.974 11.81.962.962 0 0 0 1.28-.309.936.936 0 0 0-.308-1.28Z" fill="#fff"/><path d="M502.597 288.565c.094.743.189 1.487.271 2.241a186.084 186.084 0 0 1 1.204 30.162 83.22 83.22 0 0 1-.094 2.345 196.174 196.174 0 0 1-16.965 70.204 190.51 190.51 0 0 1-13.858 25.413c-7.26 11.197-16.024 22.759-19.072 35.33a32.682 32.682 0 0 0-.753 3.974l44.52 52.56c.161.07.311.149.473.218l1.681 2.18c.3-.4.604-.82.904-1.219.175-.23.34-.473.515-.704.114-.158.227-.316.339-.452.038-.052.075-.105.102-.147.111-.136.2-.274.3-.4q2.55-3.518 5.058-7.085c.012-.01.012-.01.014-.032 12.699-18.15 23.993-37.52 31.989-57.988.24-.615.493-1.24.713-1.88a181.789 181.789 0 0 0 8.345-28.469 160.71 160.71 0 0 0 2.425-16.079 133.64 133.64 0 0 0-2.5-41.71c-6.014-27.282-20.687-52.337-43.832-67.334a98.083 98.083 0 0 0-1.78-1.128Z" fill="#e6e6e6"/><path d="M502.03 289.248a166.38 166.38 0 0 1 19.735 100.447c-.933 7.434-2.526 14.894-5.734 21.704a41.094 41.094 0 0 1-14.165 16.343c-5.608 3.923-11.799 7.287-16.355 12.505-4.803 5.5-6.54 12.589-5.72 19.767 1 8.782 5.098 16.681 9.373 24.267 4.747 8.422 9.811 17.094 10.407 26.974.073 1.197 1.926 1.015 1.854-.18-1.037-17.19-14.63-29.888-18.82-46.104-1.956-7.567-1.642-15.77 3.24-22.19 4.27-5.614 10.65-9.088 16.363-13.01 5.998-4.12 10.985-9 14.446-15.465 3.54-6.613 5.429-14.026 6.547-21.404a161.42 161.42 0 0 0-.702-50.445 169.331 169.331 0 0 0-18.96-54.3c-.58-1.045-2.086.053-1.51 1.09Z" fill="#fff"/><path d="M523.756 378.592a24.962 24.962 0 0 0 24.292-21.325c.17-1.186-1.665-1.506-1.835-.319a23.115 23.115 0 0 1-22.637 19.79c-1.198.015-1.011 1.868.18 1.854Zm-18.785 47.536a48.113 48.113 0 0 1-14.859-31.76c-.076-1.197-1.93-1.015-1.853.18a50.045 50.045 0 0 0 15.529 33.018c.872.824 2.05-.618 1.183-1.438Zm12.277-101.38a14.13 14.13 0 0 1-12.912-3.61c-.862-.836-2.039.608-1.183 1.438a15.834 15.834 0 0 0 14.276 4.026.962.962 0 0 0 .836-1.017.936.936 0 0 0-1.017-.837Z" fill="#fff"/><path d="M808.328 37.3H1.014a1.036 1.036 0 0 1 0-2.072h807.314a1.036 1.036 0 0 1 0 2.072Z" fill="#cacaca"/><ellipse cx="23.826" cy="11.397" rx="11.149" ry="11.397" fill="#f2f2f2"/><ellipse cx="62.339" cy="11.397" rx="11.149" ry="11.397" fill="#f2f2f2"/><ellipse cx="100.853" cy="11.397" rx="11.149" ry="11.397" fill="#f2f2f2"/><path d="M785.253 6.971h-27.365a2.073 2.073 0 0 1 0-4.144h27.365a2.073 2.073 0 0 1 0 4.144Zm0 7.771h-27.365a2.073 2.073 0 0 1 0-4.144h27.365a2.073 2.073 0 0 1 0 4.144Zm0 7.771h-27.365a2.073 2.073 0 0 1 0-4.145h27.365a2.073 2.073 0 0 1 0 4.145Z" fill="#f2f2f2"/><path d="M218.881 500.854c-22.836-24.794-34.586-61.915-22.274-93.293a155.305 155.305 0 0 0 81.368 68.91c13.287 4.83 28.567 8.818 35.784 20.974 4.491 7.564 4.81 17.031 2.775 25.589-2.036 8.557-6.217 16.427-10.356 24.188l-.026 2.196c-32.34-9.505-64.435-23.77-87.271-48.564Z" fill="#e6e6e6"/><path d="M197.294 407.728a132.744 132.744 0 0 0 35.679 73.467 57.164 57.164 0 0 0 14.078 11.073 32.786 32.786 0 0 0 16.874 3.606c5.457-.195 11.016-1.025 16.425.11a20.075 20.075 0 0 1 13.14 9.844c3.58 6.076 4.764 13.076 5.684 19.961 1.022 7.646 1.962 15.603 6.328 22.183.529.797-.74 1.571-1.267.775-7.596-11.448-5.037-26.067-10.158-38.41-2.389-5.76-6.529-10.833-12.723-12.578-5.416-1.525-11.15-.673-16.673-.429a34.986 34.986 0 0 1-16.63-2.911 52.847 52.847 0 0 1-14.453-10.49 128.785 128.785 0 0 1-23.784-32.473 135.098 135.098 0 0 1-14.005-43.698c-.133-.944 1.354-.968 1.485-.03Z" fill="#fff"/><path d="M226.37 475.08a19.916 19.916 0 0 1-25.717-1.917c-.678-.673.337-1.759 1.016-1.084a18.442 18.442 0 0 0 23.926 1.733c.77-.567 1.541.704.776 1.267Zm34.801 21.257a38.386 38.386 0 0 0-5.79-27.369c-.526-.8.742-1.574 1.267-.775a39.927 39.927 0 0 1 5.967 28.492c-.16.944-1.603.591-1.444-.348Zm-56.519-58.684a11.273 11.273 0 0 0 6.492-8.502c.147-.946 1.59-.592 1.444.347a12.633 12.633 0 0 1-7.16 9.422.768.768 0 0 1-1.021-.245.747.747 0 0 1 .245-1.022Z" fill="#fff"/><path d="M305.046 371.977c-.075.593-.15 1.186-.217 1.788a148.464 148.464 0 0 0-.96 24.064c.016.621.041 1.251.075 1.87a156.514 156.514 0 0 0 13.535 56.012 151.995 151.995 0 0 0 11.056 20.276c5.793 8.933 12.785 18.157 15.217 28.187a26.075 26.075 0 0 1 .6 3.17l-35.52 41.935c-.128.055-.247.118-.376.174l-1.342 1.739c-.24-.319-.48-.654-.72-.973-.14-.184-.272-.377-.412-.561-.09-.126-.18-.252-.27-.36a2.083 2.083 0 0 1-.081-.118c-.089-.109-.16-.219-.24-.319q-2.034-2.807-4.035-5.653c-.01-.008-.01-.008-.012-.025-10.13-14.481-19.142-29.935-25.52-46.265-.193-.491-.394-.99-.57-1.5a145.036 145.036 0 0 1-6.658-22.714 128.218 128.218 0 0 1-1.935-12.828 106.623 106.623 0 0 1 1.995-33.277c4.798-21.767 16.505-41.757 34.97-53.722a75.86 75.86 0 0 1 1.42-.9Z" fill="#e6e6e6"/><path d="M305.498 372.522a132.744 132.744 0 0 0-15.745 80.14 57.164 57.164 0 0 0 4.574 17.316 32.786 32.786 0 0 0 11.302 13.04c4.474 3.13 9.413 5.813 13.049 9.976a20.075 20.075 0 0 1 4.564 15.77c-.8 7.008-4.068 13.31-7.48 19.362-3.786 6.719-7.827 13.638-8.302 21.52-.058.956-1.537.81-1.479-.143.828-13.714 11.673-23.845 15.016-36.784 1.56-6.037 1.31-12.58-2.586-17.703-3.407-4.48-8.497-7.25-13.055-10.38a34.985 34.985 0 0 1-11.526-12.338 52.847 52.847 0 0 1-5.223-17.077 128.785 128.785 0 0 1 .56-40.248 135.098 135.098 0 0 1 15.127-43.322c.463-.834 1.664.042 1.204.87Z" fill="#fff"/><path d="M288.164 443.804a19.916 19.916 0 0 1-19.38-17.014c-.136-.946 1.328-1.202 1.464-.254a18.442 18.442 0 0 0 18.06 15.79c.956.01.807 1.489-.144 1.478Zm14.988 37.926a38.386 38.386 0 0 0 11.854-25.34c.061-.954 1.54-.81 1.48.144a39.927 39.927 0 0 1-12.39 26.342c-.696.658-1.637-.492-.944-1.147Zm-9.796-80.885a11.273 11.273 0 0 0 10.302-2.88c.688-.667 1.627.485.944 1.147a12.633 12.633 0 0 1-11.39 3.212.768.768 0 0 1-.667-.811.747.747 0 0 1 .811-.668Z" fill="#fff"/><path d="M748.457 110.338H114.119a7.153 7.153 0 1 1 0-14.307h634.338a7.153 7.153 0 1 1 0 14.307Zm0 28.266H114.119a7.154 7.154 0 1 1 0-14.307h634.338a7.154 7.154 0 0 1 0 14.307Zm-124.26 28.266H114.119a7.154 7.154 0 1 1 0-14.307h510.078a7.154 7.154 0 0 1 0 14.308Z" fill="#ffd300"/><path d="M707.004 398.143c7.149 4.853 15.096 10.313 17.4 19.171a14.569 14.569 0 0 1-1.485 11.335c-1.834 3.058-4.568 5.46-7.234 7.776-3.167 2.75-6.36 5.454-8.817 8.888-1.125 1.573 1.475 3.073 2.59 1.515 4.556-6.367 12.127-9.974 16.137-16.807 4.742-8.08 1.577-17.664-4.3-24.206-3.666-4.082-8.265-7.2-12.777-10.262-1.602-1.088-3.104 1.51-1.514 2.59Zm25 0c7.149 4.853 15.096 10.313 17.4 19.171a14.569 14.569 0 0 1-1.485 11.335c-1.834 3.058-4.568 5.46-7.234 7.776-3.167 2.75-6.36 5.454-8.817 8.888-1.125 1.573 1.476 3.073 2.59 1.515 4.556-6.367 12.127-9.974 16.137-16.807 4.742-8.08 1.577-17.664-4.3-24.206-3.666-4.082-8.265-7.2-12.777-10.262-1.602-1.088-3.104 1.51-1.514 2.59Zm-608.652 0c-7.15 4.853-15.096 10.313-17.4 19.171a14.569 14.569 0 0 0 1.485 11.335c1.834 3.058 4.567 5.46 7.234 7.776 3.167 2.75 6.36 5.454 8.817 8.888 1.125 1.573-1.476 3.073-2.59 1.515-4.556-6.367-12.128-9.974-16.137-16.807-4.742-8.08-1.578-17.664 4.299-24.206 3.667-4.082 8.266-7.2 12.778-10.262 1.602-1.088 3.104 1.51 1.514 2.59Zm-25 0c-7.15 4.853-15.096 10.313-17.4 19.171a14.569 14.569 0 0 0 1.485 11.335c1.834 3.058 4.567 5.46 7.234 7.776 3.167 2.75 6.36 5.454 8.817 8.888 1.125 1.573-1.476 3.073-2.59 1.515-4.557-6.367-12.128-9.974-16.137-16.807-4.742-8.08-1.578-17.664 4.299-24.206 3.667-4.082 8.266-7.2 12.778-10.262 1.602-1.088 3.104 1.51 1.514 2.59Z" fill="#e6e7e8"/><circle cx="374.121" cy="270.959" r="23.33" fill="#2f2e41"/><circle cx="411.449" cy="323.842" r="59.104" fill="#2f2e41"/><circle cx="416.34" cy="334.902" r="48.028" fill="#9e616a"/><path d="M448.956 285.944a55.015 55.015 0 0 0-83.642 48.013c24.473 6.145 50.183 10.847 76.282 1.47l6.163-15.084 3.634 15.095c7.948 3.249 15.916 5.998 23.885-.031a56.173 56.173 0 0 0-26.322-49.463Zm84.842 278.89a192.587 192.587 0 0 1-43.12 29.6l-3.31-10.66-2.67 10.39 1.04 2.66c-1.15.54-2.31 1.06-3.47 1.57q-1.485.66-2.97 1.29a192.837 192.837 0 0 1-114.76 10.84c-1.01-.21-2.01-.43-3.01-.66-4.37-1-8.69-2.16-12.95-3.45l5.96-22.16-5.3-26.79-13.8 44.41a191.752 191.752 0 0 1-44.02-24.08c4.24-27.41 9.21-60.31 12.28-83.08 1.11-8.32 1.97-15.28 2.45-20.14a61.936 61.936 0 0 1 2.66-13.41 36.556 36.556 0 0 1 2.59-6.1c.22-.43.46-.84.7-1.24.23-.39.47-.76.72-1.12 6.14-9.15 14.02-8.59 14.02-8.59l23.52-4.59 7.35-1.44 2.99-.58 3.66-.72a20.377 20.377 0 0 0 13.55-9.48l9.99-16.59a20.452 20.452 0 0 1 8.96-8.01c.45-.2.91-.39 1.37-.57a20.202 20.202 0 0 1 6.34-1.27l14.14-.55 5.72-.23 7.81-.3a20.014 20.014 0 0 1 5.48.54h.01c.63.15 1.23.32 1.84.53a20.354 20.354 0 0 1 11.17 9.2l6.98 12.24a20.387 20.387 0 0 0 15.19 10.13l2.68.33 3.01.38 7.61.95 13.9 1.74.03.53c2.66.21 10.24 1.77 15.32 12.6.34.71.66 1.47.97 2.26a57.827 57.827 0 0 1 3.37 14.92c.03.22.05.44.07.66 1.7 17.33 8.29 61.52 13.93 98.04Z" fill="#2f2e41"/><path d="m420.547 610.155-.95 4.43-2.93-.63.872-4.064a168.288 168.288 0 0 0 3.7-39.027l-3.681-165.74-.07-2.98-.04-1.81 1.52-.03 1.48-.03.15 6.88 3.642 164.008a168.289 168.289 0 0 1-3.693 38.993ZM303.018 499.674l42.18 5.76 2.95.4 1.8.25-.21 1.5-.21 1.47-6.82-.93-40.1-5.48.41-2.97z" fill="#ffd300"/><path d="m428.898 403.074-4.47-2.99-5.46.22-.26.01-1.22 1.83.07 2.98 3.04 2.03 3.85 2.57a4 4 0 1 0 4.45-6.65Zm-.56 4.44a2.001 2.001 0 1 1-.55-2.78 2.01 2.01 0 0 1 .55 2.78Z" fill="#ffd300"/></svg>