<svg xmlns="http://www.w3.org/2000/svg" width="703.817" height="573.37" viewBox="0 0 703.817 573.37"><path d="M459.314 239.738a11.039 11.039 0 0 1 13.605 10.07l37.765 10.616-15.41 13.346-33.499-12.127a11.099 11.099 0 0 1-2.461-21.905Zm97.043 321.556-11.008-.001-5.237-42.458 16.247.001-.002 42.458z" fill="#ffb7b7"/><path d="m559.164 571.964-35.493-.001v-.449a13.816 13.816 0 0 1 13.815-13.815l21.679.001Z" fill="#10162f"/><path fill="#ffb7b7" d="m620.859 561.294-11.008-.001-5.237-42.458 16.246.001-.001 42.458z"/><path d="m623.666 571.964-35.494-.001v-.449a13.816 13.816 0 0 1 13.815-13.815h.001l21.678.001Zm-76.303-254.361-16.215 112.314 4.04 118.334 24.349 1.939 7.614-106.123 19.382-59.174 11.395 84.352.468 79.006 25.143 1.939 8.769-166.1-6.45-72.236-78.495 5.749z" fill="#10162f"/><circle cx="594.261" cy="141.578" r="25.651" fill="#ffb7b7"/><path d="m578.45 181.182-28.318 142.665s47.678 13.684 68.565 1.051 11.527-51.63 11.527-51.63L626.4 206.91l-7.069-16.78-5.998-13.853Z" fill="#e6e6e6"/><path d="m570.161 282.45 9.783-104.038-7.824 5.712-27.353 8.883-1.872 73.246-19.135 96.32s13.677 26.688 30.627-17.464Z" fill="#10162f"/><path fill="#10162f" d="m557.931 203.962-13.164-10.955-29.587 64.272-33.016-7.232-1.56 19.499 47.836 18.931 32.598-45.382-3.107-39.133zm51.213 55.715 3.687-84.672 13.568 10.507 24.231 6.754-3.553 67.411 5.113 104.6-25.404 8.046-7.131-66.003-10.511-46.643z"/><path d="M610.774 327.837a11.039 11.039 0 0 1 14.689-8.412l24.896-30.315 6.03 19.473-24.567 25.802a11.099 11.099 0 0 1-21.048-6.548Z" fill="#ffb7b7"/><path fill="#10162f" d="m634.407 201.665 16.223-9.399 40.821 80.612-39.799 55.265-22.7-18.15 27.564-35.945-25.122-38.608 3.013-33.775zm-16.02-80.595 1.244-2.502-6.258-3.11s-6.903-11.23-19.394-8.074-18.11 5.045-18.11 5.045l-6.242 3.14 3.133 3.117-5.62 1.89 3.754 1.865-4.368 2.51 2.352 12.872s3.905-9.763 11.414-6.032 21.244-1.928 21.244-1.928l11.932 23.092s2.462-8.095 6.85-5.936c0 0 11.213-17.857-1.931-25.948Z"/><path d="M462.573 158.704h-.164l-94.072 40.17-128.709 54.959a4.151 4.151 0 0 1-3.18.016L103.66 198.76 7.278 158.77l-.148-.065h-.164a5.742 5.742 0 0 0-5.736 5.736v249.11a5.742 5.742 0 0 0 5.736 5.735h455.608a5.742 5.742 0 0 0 5.736-5.736V164.44a5.742 5.742 0 0 0-5.736-5.736Z" fill="#fff"/><path d="M462.981 160.343a.817.817 0 0 1-.467-.147L235.89 2.37a4.11 4.11 0 0 0-4.694.008L6.207 160.195a.82.82 0 0 1-.942-1.342L230.255 1.036a5.754 5.754 0 0 1 6.573-.01L463.45 158.85a.82.82 0 0 1-.469 1.492Z" fill="#10162f"/><path fill="#e6e6e6" d="M19.063 165.938 233.765 6.817 450.097 177.26l-205.27 121.686-111.443-25.402L19.063 165.938z"/><path d="M142.791 374.107H36.723a4.955 4.955 0 1 1-.014-9.911H142.79a4.955 4.955 0 1 1 .015 9.91Zm-68.013-21.306H36.723a4.955 4.955 0 1 1-.014-9.91h38.07a4.955 4.955 0 0 1 .014 9.91h-.015Zm162.007-98.235a6.199 6.199 0 0 1-2.351-.46L102.02 199.162V27.184a5.743 5.743 0 0 1 5.736-5.736h254.026a5.743 5.743 0 0 1 5.736 5.736v172.1l-.25.106-128.061 54.689a6.24 6.24 0 0 1-2.422.487Z" fill="#3a10e5"/><path d="M461.343 158.704h-.164l-94.071 40.17-128.709 54.959a4.151 4.151 0 0 1-3.18.016l-132.79-55.09-96.382-39.99-.147-.065h-.164A5.742 5.742 0 0 0 0 164.44v249.11a5.742 5.742 0 0 0 5.736 5.735h455.607a5.742 5.742 0 0 0 5.736-5.736V164.44a5.742 5.742 0 0 0-5.736-5.736Zm4.097 254.845a4.099 4.099 0 0 1-4.097 4.097H5.736a4.099 4.099 0 0 1-4.097-4.097V164.44a4.106 4.106 0 0 1 3.941-4.097l96.85 40.185 132.159 54.837a5.835 5.835 0 0 0 4.457-.024l128.062-54.69 94.4-40.308a4.11 4.11 0 0 1 3.932 4.097Z" fill="#10162f"/><path d="M216.17 85.735h-90.138a6.556 6.556 0 0 1 0-13.111h90.138a6.556 6.556 0 0 1 0 13.11Zm-46.708-27.861h-43.43a6.556 6.556 0 0 1 0-13.111h43.43a6.556 6.556 0 0 1 0 13.11Zm132.723 93.416H164.52a6.556 6.556 0 0 1 0-13.111h137.665a6.556 6.556 0 0 1 0 13.11Zm0 30.319H164.52a6.556 6.556 0 1 1 0-13.111h137.665a6.556 6.556 0 1 1 0 13.11Z" fill="#fff"/></svg>