<svg xmlns="http://www.w3.org/2000/svg" width="823.24" height="735.54" viewBox="0 0 823.24 735.54"><path d="M770.313 400.743 181.129 652.806a16.519 16.519 0 0 1-21.66-8.68L4.04 280.823a12.102 12.102 0 0 1 6.36-15.868L607.504 9.503a12.311 12.311 0 0 1 16.143 6.47l155.345 363.11a16.519 16.519 0 0 1-8.68 21.66Z" fill="#3a10e5"/><path d="M743.07 389.74 193.964 624.656c-8.05 3.443-17.222.113-20.446-7.425L38.17 300.862c-2.392-5.59.515-12.214 6.48-14.765L601.137 48.022c6.064-2.594 12.975-.081 15.405 5.601L751.82 369.825c3.225 7.537-.7 16.471-8.75 19.915Z" fill="#fff"/><path d="M624.163 17.76 4.637 282.806l-3.304-7.724a16.574 16.574 0 0 1 8.716-21.73L599.124 1.336a16.574 16.574 0 0 1 21.735 8.703Z" fill="#10162f"/><circle cx="27.41" cy="259.52" r="4.283" fill="#fff"/><circle cx="42.358" cy="253.125" r="4.283" fill="#fff"/><circle cx="57.306" cy="246.73" r="4.283" fill="#fff"/><path d="m303.888 363.777-73.229 31.329a16.519 16.519 0 0 1-21.66-8.68l-40.423-94.488a16.519 16.519 0 0 1 8.68-21.66l73.229-31.328a16.519 16.519 0 0 1 21.66 8.68l40.423 94.487a16.519 16.519 0 0 1-8.68 21.66Zm123.909-53.01-73.23 31.329a16.519 16.519 0 0 1-21.66-8.68l-40.423-94.488a16.519 16.519 0 0 1 8.68-21.66l73.23-31.329a16.519 16.519 0 0 1 21.66 8.68l40.423 94.488a16.519 16.519 0 0 1-8.68 21.66Zm123.908-53.01-73.229 31.329a16.519 16.519 0 0 1-21.66-8.68l-40.423-94.488a16.519 16.519 0 0 1 8.68-21.66l73.229-31.329a16.519 16.519 0 0 1 21.66 8.68l40.423 94.488a16.519 16.519 0 0 1-8.68 21.66ZM366.428 509.961l-73.229 31.329a16.519 16.519 0 0 1-21.66-8.68l-40.423-94.488a16.519 16.519 0 0 1 8.68-21.66l73.228-31.328a16.519 16.519 0 0 1 21.66 8.68l40.424 94.487a16.519 16.519 0 0 1-8.68 21.66Zm123.908-53.01-73.228 31.329a16.519 16.519 0 0 1-21.66-8.68l-40.424-94.488a16.519 16.519 0 0 1 8.68-21.66l73.23-31.329a16.519 16.519 0 0 1 21.66 8.68l40.422 94.488a16.519 16.519 0 0 1-8.68 21.66Zm123.909-53.011-73.229 31.33a16.519 16.519 0 0 1-21.66-8.68l-40.423-94.488a16.519 16.519 0 0 1 8.68-21.66l73.229-31.329a16.519 16.519 0 0 1 21.66 8.68l40.423 94.488a16.519 16.519 0 0 1-8.68 21.66Z" fill="#e6e6e6"/><path d="M806.74 735.54H165.9a16.519 16.519 0 0 1-16.5-16.5V323.887a12.102 12.102 0 0 1 12.088-12.089h649.453a12.311 12.311 0 0 1 12.298 12.298V719.04a16.519 16.519 0 0 1-16.5 16.5Z" fill="#3a10e5"/><path d="M786.02 714.708H188.775c-8.755 0-15.878-6.67-15.878-14.868V355.735c0-6.08 5.278-11.027 11.766-11.027h605.274c6.595 0 11.96 5.028 11.96 11.209V699.84c0 8.198-7.122 14.868-15.877 14.868Z" fill="#fff"/><path d="M823.01 325.943H149.17v-8.4a16.574 16.574 0 0 1 16.56-16.55h640.72a16.574 16.574 0 0 1 16.56 16.55Z" fill="#10162f"/><circle cx="179.265" cy="313.493" r="4.283" fill="#fff"/><circle cx="195.524" cy="313.493" r="4.283" fill="#fff"/><circle cx="211.782" cy="313.493" r="4.283" fill="#fff"/><rect x="450.203" y="441.306" width="324" height="41.028" rx="20.514" fill="#e6e6e6"/><rect x="450.203" y="509.194" width="324" height="41.028" rx="20.514" fill="#e6e6e6"/><rect x="450.203" y="577.083" width="324" height="41.028" rx="20.514" fill="#e6e6e6"/><path d="M423.592 529.708a110 110 0 1 1-110-110 110.035 110.035 0 0 1 110 110Z" fill="#fff"/><path d="M364.432 548.53c-1.201 70.351-105.847 70.34-107.038-.002 1.201-70.349 105.847-70.338 107.038.002Z" fill="#3a10e5"/><path d="m308.789 570.366-.056-2c13.784 1.84 16.753-15.243 2.851-8.856l3.174-23.19 1.981.27-2.699 19.727c14.637-2.178 9.223 16.048-5.251 14.05Zm17.75-32.074h10.771v2h-10.771zm-34 0h10.771v2h-10.771zm35.723 85.066c2.1-14.17-14.49-11.37-23.27-11.51a9.518 9.518 0 0 0-9.28 11.5 52.038 52.038 0 0 0-18.49 10.2 110.476 110.476 0 0 0 70.43.78 51.77 51.77 0 0 0-19.39-10.97Zm-42.511-100.141c9.919-5.732 21.947-1.335 32.192 1.07 19.438 5.975 46.697-1.507 49.06-24.663 2.46-21.535-26.998-33.537-36.414-12.103l2.742-.359c-30.537-45.382-83.655-43.66-83.306 18.732-.113 1.927 2.887 1.92 3-.001-1.125-36.767 23.208-61.9 57.605-38.272 7.871 5.743 14.24 13.35 20.11 21.055 3.582 4.015 4.36-13.274 21.506-8.746 18.869 7.31 12.712 34.329-4.153 40.26-20.839 10.646-43.408-9.995-63.856.435a1.502 1.502 0 0 0 1.514 2.592Z" fill="#10162f"/><path d="M313.592 642.708a112.905 112.905 0 1 1 34.988-5.527 112.727 112.727 0 0 1-34.988 5.527Zm0-220a107.015 107.015 0 1 0 107 107 107.121 107.121 0 0 0-107-107Z" fill="#10162f"/></svg>