<svg height="32px" version="1.1" viewBox="0 0 32 32" width="32px" xmlns="http://www.w3.org/2000/svg" xmlns:xlink="http://www.w3.org/1999/xlink"><g fill="none" fill-rule="evenodd" id="Page-1" stroke="none" stroke-width="1"><g id="letter-S"><g id="Page-1" transform="translate(5.000000, 2.000000)"><path d="M22.0172,19.9116 C22.0172,21.5496 21.5952,23.0206 20.7522,24.3256 C19.9082,25.6306 18.6742,26.6526 17.0492,27.3916 C15.4232,28.1306 13.4962,28.4996 11.2682,28.4996 C8.5962,28.4996 6.3922,27.9956 4.6562,26.9856 C3.4242,26.2586 2.4242,25.2896 1.6542,24.0766 C0.8852,22.8636 0.5002,21.6846 0.5002,20.5396 C0.5002,19.8746 0.7312,19.3056 1.1922,18.8316 C1.6542,18.3566 2.2422,18.1196 2.9562,18.1196 C3.5352,18.1196 4.0242,18.3046 4.4252,18.6746 C4.8252,19.0436 5.1672,19.5916 5.4502,20.3176 C5.7942,21.1796 6.1672,21.9006 6.5672,22.4786 C6.9672,23.0576 7.5312,23.5346 8.2572,23.9106 C8.9842,24.2856 9.9382,24.4736 11.1202,24.4736 C12.7452,24.4736 14.0662,24.0946 15.0822,23.3376 C16.0972,22.5806 16.6052,21.6356 16.6052,20.5026 C16.6052,19.6036 16.3312,18.8746 15.7832,18.3136 C15.2362,17.7536 14.5282,17.3256 13.6592,17.0306 C12.7912,16.7346 11.6312,16.4206 10.1782,16.0886 C8.2322,15.6326 6.6042,15.1006 5.2932,14.4906 C3.9812,13.8816 2.9412,13.0506 2.1712,11.9976 C1.4022,10.9446 1.0172,9.6366 1.0172,8.0726 C1.0172,6.5826 1.4232,5.2586 2.2362,4.1016 C3.0492,2.9446 4.2252,2.0546 5.7642,1.4326 C7.3032,0.8106 9.1132,0.4996 11.1942,0.4996 C12.8562,0.4996 14.2942,0.7066 15.5062,1.1186 C16.7192,1.5316 17.7262,2.0796 18.5262,2.7626 C19.3272,3.4456 19.9112,4.1636 20.2812,4.9146 C20.6502,5.6656 20.8352,6.3976 20.8352,7.1126 C20.8352,7.7646 20.6042,8.3526 20.1422,8.8756 C19.6812,9.3996 19.1052,9.6606 18.4152,9.6606 C17.7872,9.6606 17.3102,9.5036 16.9842,9.1896 C16.6582,8.8756 16.3042,8.3616 15.9222,7.6476 C15.4292,6.6256 14.8382,5.8286 14.1492,5.2556 C13.4592,4.6836 12.3512,4.3966 10.8242,4.3966 C9.4082,4.3966 8.2662,4.7076 7.3982,5.3296 C6.5302,5.9516 6.0962,6.6996 6.0962,7.5736 C6.0962,8.1156 6.2442,8.5836 6.5392,8.9776 C6.8352,9.3716 7.2412,9.7106 7.7582,9.9936 C8.2762,10.2766 8.7992,10.4986 9.3282,10.6586 C9.8582,10.8186 10.7322,11.0526 11.9512,11.3606 C13.4782,11.7176 14.8602,12.1116 16.0972,12.5426 C17.3352,12.9736 18.3882,13.4966 19.2562,14.1126 C20.1242,14.7276 20.8012,15.5066 21.2872,16.4486 C21.7742,17.3906 22.0172,18.5446 22.0172,19.9116" fill="#3a10e5" id="Fill-1"/><path d="M22.0172,19.9116 C22.0172,21.5496 21.5952,23.0206 20.7522,24.3256 C19.9082,25.6306 18.6742,26.6526 17.0492,27.3916 C15.4232,28.1306 13.4962,28.4996 11.2682,28.4996 C8.5962,28.4996 6.3922,27.9956 4.6562,26.9856 C3.4242,26.2586 2.4242,25.2896 1.6542,24.0766 C0.8852,22.8636 0.5002,21.6846 0.5002,20.5396 C0.5002,19.8746 0.7312,19.3056 1.1922,18.8316 C1.6542,18.3566 2.2422,18.1196 2.9562,18.1196 C3.5352,18.1196 4.0242,18.3046 4.4252,18.6746 C4.8252,19.0436 5.1672,19.5916 5.4502,20.3176 C5.7942,21.1796 6.1672,21.9006 6.5672,22.4786 C6.9672,23.0576 7.5312,23.5346 8.2572,23.9106 C8.9842,24.2856 9.9382,24.4736 11.1202,24.4736 C12.7452,24.4736 14.0662,24.0946 15.0822,23.3376 C16.0972,22.5806 16.6052,21.6356 16.6052,20.5026 C16.6052,19.6036 16.3312,18.8746 15.7832,18.3136 C15.2362,17.7536 14.5282,17.3256 13.6592,17.0306 C12.7912,16.7346 11.6312,16.4206 10.1782,16.0886 C8.2322,15.6326 6.6042,15.1006 5.2932,14.4906 C3.9812,13.8816 2.9412,13.0506 2.1712,11.9976 C1.4022,10.9446 1.0172,9.6366 1.0172,8.0726 C1.0172,6.5826 1.4232,5.2586 2.2362,4.1016 C3.0492,2.9446 4.2252,2.0546 5.7642,1.4326 C7.3032,0.8106 9.1132,0.4996 11.1942,0.4996 C12.8562,0.4996 14.2942,0.7066 15.5062,1.1186 C16.7192,1.5316 17.7262,2.0796 18.5262,2.7626 C19.3272,3.4456 19.9112,4.1636 20.2812,4.9146 C20.6502,5.6656 20.8352,6.3976 20.8352,7.1126 C20.8352,7.7646 20.6042,8.3526 20.1422,8.8756 C19.6812,9.3996 19.1052,9.6606 18.4152,9.6606 C17.7872,9.6606 17.3102,9.5036 16.9842,9.1896 C16.6582,8.8756 16.3042,8.3616 15.9222,7.6476 C15.4292,6.6256 14.8382,5.8286 14.1492,5.2556 C13.4592,4.6836 12.3512,4.3966 10.8242,4.3966 C9.4082,4.3966 8.2662,4.7076 7.3982,5.3296 C6.5302,5.9516 6.0962,6.6996 6.0962,7.5736 C6.0962,8.1156 6.2442,8.5836 6.5392,8.9776 C6.8352,9.3716 7.2412,9.7106 7.7582,9.9936 C8.2762,10.2766 8.7992,10.4986 9.3282,10.6586 C9.8582,10.8186 10.7322,11.0526 11.9512,11.3606 C13.4782,11.7176 14.8602,12.1116 16.0972,12.5426 C17.3352,12.9736 18.3882,13.4966 19.2562,14.1126 C20.1242,14.7276 20.8012,15.5066 21.2872,16.4486 C21.7742,17.3906 22.0172,18.5446 22.0172,19.9116 L22.0172,19.9116 Z" id="Stroke-3" stroke="#092933" stroke-linejoin="round"/><path d="M2.5174,8.0727 C2.5174,6.8877 2.8274,5.8707 3.4634,4.9647 C4.1134,4.0387 5.0484,3.3397 6.3254,2.8237" id="Stroke-5" stroke="#FFFFFF" stroke-dasharray="1,2,6,2,3" stroke-linecap="round" stroke-linejoin="round"/><path d="M21.4903,19.3202 C21.4243,20.6902 21.0473,21.9482 20.3323,23.0542 C19.5463,24.2712 18.3723,25.2412 16.8413,25.9372 C15.2883,26.6432 13.4133,27.0002 11.2673,27.0002 C8.6973,27.0002 6.5573,26.5142 4.9083,25.5532 C3.7523,24.8722 2.7993,23.9492 2.0763,22.8092 C1.4893,21.8842 1.1543,20.9782 1.0483,20.1052 C1.0183,20.2442 1.0003,20.3872 1.0003,20.5392 C1.0003,21.5832 1.3623,22.6832 2.0763,23.8092 C2.7993,24.9492 3.7523,25.8722 4.9083,26.5532 C6.5573,27.5142 8.6973,28.0002 11.2673,28.0002 C13.4133,28.0002 15.2883,27.6432 16.8413,26.9372 C18.3723,26.2412 19.5463,25.2712 20.3323,24.0542 C21.1193,22.8372 21.5173,21.4442 21.5173,19.9112 C21.5173,19.7062 21.5023,19.5152 21.4903,19.3202" fill="#332E09" id="Fill-7" opacity="0.203766325"/></g></g></g></svg>